<?xml version="1.0" standalone="no"?><!DOCTYPE svg PUBLIC "-//W3C//DTD SVG 1.1//EN" "http://www.w3.org/Graphics/SVG/1.1/DTD/svg11.dtd"><svg t="1588224344490" class="icon" viewBox="0 0 1278 1024" version="1.1" xmlns="http://www.w3.org/2000/svg" p-id="9144" xmlns:xlink="http://www.w3.org/1999/xlink" width="249.609375" height="200"><defs><style type="text/css"></style></defs><path d="M637.700599 1022.637392c-166.23819 0-331.795077-2.043912-498.033267 0.681304C60.636061 1025.362608 0 962.682635 0 884.332668 0.681304 637.019295 0 389.024617 0.681304 141.02994c0-71.536926 36.109115-121.272122 98.789088-137.62342C111.052562 0.681304 124.678643 0 136.942116 0c334.520293 0 669.040585 0 1003.560878 0 80.393879 0 136.260812 53.141717 136.260812 133.535595 0.681304 252.082502 0.681304 504.165003 0 755.566201 0 80.393879-55.866933 133.535595-136.260812 133.535595C972.902196 1023.318696 805.301397 1022.637392 637.700599 1022.637392zM127.403859 128.766467c0 42.240852-0.681304 79.031271 0.681304 115.82169 0 7.494345 6.813041 17.032601 13.626081 21.120426 160.787758 100.833001 322.25682 200.303393 483.725882 299.773786 6.813041 4.087824 19.757818 4.087824 26.570858 0 161.469062-99.470393 322.938124-199.622089 483.725882-299.773786 5.450432-3.40652 13.626081-10.219561 13.626081-15.669993 1.362608-38.834331 0.681304-76.987359 0.681304-119.909514-13.626081 8.175649-23.164338 12.944777-32.021291 19.076514-153.293413 95.382568-305.905522 190.765136-458.517631 287.510313-15.669993 9.538257-25.889554 9.538257-40.878244 0C523.922821 376.07984 429.221557 317.487691 334.520293 258.214238 267.071191 215.973387 199.622089 173.732535 127.403859 128.766467z" p-id="9145"></path></svg>